PathFileType	4	(X/Y/Z)	Run_300 02
DataRate	CameraRate	NumFrames	NumMarkers	Units	OrigDataRate	OrigDataStartFrame	OrigNumFrames
100	100	4	42	mm	100	189	128
Frame#	Time	LASI			RASI			LPSI			RPSI			RTH1			RTH2			RTH3			LTH1			LTH2			LTH3			RTB1			RTB2			RTB3			LTB1			LTB2			LTB3			RCAL			RTOE			RMT5			LCAL			LTOE			LMT5			LACR			RACR			CLAV			C7			RUA1			RUA2			RUA3			RLEL			RMEL			LUA1			LUA2			LUA3			LLEL			LMEL			RFAsuperior			RFAradius			RFAulna			LFAsuperior			LFAradius			LFAulna			
		X1	Y1	Z1	X2	Y2	Z2	X3	Y3	Z3	X4	Y4	Z4	X5	Y5	Z5	X6	Y6	Z6	X7	Y7	Z7	X8	Y8	Z8	X9	Y9	Z9	X10	Y10	Z10	X11	Y11	Z11	X12	Y12	Z12	X13	Y13	Z13	X14	Y14	Z14	X15	Y15	Z15	X16	Y16	Z16	X17	Y17	Z17	X18	Y18	Z18	X19	Y19	Z19	X20	Y20	Z20	X21	Y21	Z21	X22	Y22	Z22	X23	Y23	Z23	X24	Y24	Z24	X25	Y25	Z25	X26	Y26	Z26	X27	Y27	Z27	X28	Y28	Z28	X29	Y29	Z29	X30	Y30	Z30	X31	Y31	Z31	X32	Y32	Z32	X33	Y33	Z33	X34	Y34	Z34	X35	Y35	Z35	X36	Y36	Z36	X37	Y37	Z37	X38	Y38	Z38	X39	Y39	Z39	X40	Y40	Z40	X41	Y41	Z41	X42	Y42	Z42	

178	2.2	812.858555	998.2230070000001	-473.771541	821.160881	976.000128	-202.443565	641.908447	1011.273772	-393.305447	652.2346250000001	1006.975367	-285.680302	736.531078	779.063612	-159.413895	808.083362	679.071513	-180.697807	742.934515	561.143414	-209.761032	781.86395	805.412632	-508.472914	887.994221	698.845672	-483.176972	870.804067	575.298542	-454.943131	681.327886	376.480595	-259.955811	617.863327	380.320477	-197.612911	514.855798	334.758279	-253.10537	902.513913	350.613288	-363.939681	835.621728	276.847338	-429.698267	841.234572	204.72559	-361.010868	376.955526	412.093199	-271.281837	368.251729	184.405714	-255.895138	347.006254	242.094274	-180.523478	685.948531	97.088831	-358.277098	914.738303	69.63987899999999	-330.051366	865.351819	49.456718	-426.998004	812.320126	1439.245912	-539.10884	823.762918	1479.584378	-204.776832	873.2346199999999	1398.238305	-337.80256	753.086646	1484.875378	-370.107888	769.580374	1414.512328	-113.401161	695.049801	1345.581449	-127.92913	726.6217799999999	1299.460244	-72.41255	683.40219	1206.263793	-29.840104	658.600261	1184.151698	-103.548868	751.296304	1356.744932	-614.959841	682.006908	1293.811114	-581.12378	672.3888480000001	1233.11652	-634.250914	649.2921239999999	1154.384511	-657.478833	630.537104	1148.46391	-582.962087	780.785292	1157.590141	-22.335524	915.009033	1089.843743	-62.358825	875.852548	1033.92687	-39.305105	743.742478	1093.005959	-654.920743	867.143777	1008.793305	-582.236705	829.167231	960.551969	-618.625343	
179	2.21	812.564498	994.829141	-473.064246	817.6912170000001	972.1659509999999	-200.615582	641.112792	1008.537401	-392.559648	648.875814	1002.334368	-283.888454	736.674941	775.960636	-160.967474	815.476729	677.838434	-178.763845	756.634855	559.424146	-209.497691	776.663056	802.630713	-509.058335	880.355205	694.151533	-482.816587	858.448064	569.718933	-455.135967	703.153277	377.590423	-258.497117	639.2012539999999	379.784457	-196.222926	538.284123	333.707117	-253.974711	883.709422	344.325969	-363.106273	813.710769	273.028436	-430.272673	815.437778	200.774104	-360.726279	395.813703	409.475722	-271.708726	396.369569	181.551701	-254.586723	373.706281	239.62433	-178.348249	656.79274	97.951904	-358.296227	885.274504	68.666431	-330.70176	834.253246	48.414459	-424.283276	813.200684	1434.892454	-539.50746	821.287856	1477.039945	-204.742413	872.567949	1395.390915	-337.187768	753.164778	1482.401554	-370.911276	765.6040379999999	1411.639421	-114.75946	690.9131640000001	1342.95976	-131.14792	719.846331	1297.500614	-74.408642	675.6511379999999	1203.947558	-33.03474	652.176765	1182.125729	-107.089566	755.74571	1349.064791	-614.522389	688.591203	1282.537811	-585.605061	684.243237	1221.514255	-638.076971	664.9593149999999	1141.141296	-660.878392	643.220263	1135.062611	-586.9492739999999	771.577129	1152.154873	-24.126545	904.329457	1079.446986	-60.412065	862.23349	1024.969193	-38.353258	760.137253	1083.207536	-654.151697	882.563012	1001.462036	-578.755728	847.243567	952.672902	-617.432876	
180	2.22	813.292881	992.600656	-471.053323	814.681541	970.540867	-199.068026	641.087632	1006.892622	-390.625489	645.976321	999.905187	-282.374724	734.906534	774.1262379999999	-163.715439	823.07376	678.433661	-176.688951	770.765114	558.888277	-207.811977	771.454072	801.334715	-510.049852	871.1868909999999	689.849519	-482.291298	844.324177	565.347199	-456.000586	725.395749	378.943118	-256.981863	661.1211520000001	379.815993	-195.068267	562.926893	332.218242	-255.332259	862.884122	338.773067	-363.059148	791.552252	269.611416	-431.628745	789.1874319999999	198.013268	-360.656932	414.870384	404.660079	-271.798975	427.207742	177.23729	-253.46609	402.302022	234.728657	-176.889295	627.752323	98.853202	-358.455959	856.055519	68.009857	-331.515732	804.081734	48.268209	-423.871262	814.929427	1431.542553	-539.632653	819.098893	1475.652388	-204.600148	871.986127	1393.697683	-336.48426	753.316865	1480.630791	-371.661512	761.6529420000001	1409.968735	-116.355844	686.498913	1341.915711	-134.128619	712.586863	1296.896427	-76.742726	667.3912790000001	1203.243965	-36.403399	645.649824	1181.986652	-111.001883	759.770266	1343.56387	-613.270947	695.762141	1272.982884	-587.846806	696.465254	1212.319077	-640.566992	681.403401	1130.339929	-663.495982	656.040824	1123.947022	-589.982635	761.754398	1148.339408	-26.166595	892.8833980000001	1070.581702	-58.948842	847.797727	1017.669961	-38.033892	777.016178	1075.910722	-652.510184	898.828593	997.004188	-574.281308	866.577671	947.620336	-615.495109	
181	2.23	814.255569	991.7194	-468.733784	812.437764	970.899088	-198.189595	641.391705	1006.571609	-388.43732	643.844867	999.45993	-281.529857	732.721316	773.713058	-167.303384	831.117348	681.057007	-174.522644	785.146272	559.668036	-205.593952	766.868641	801.3969990000001	-511.323643	861.33083	686.060548	-481.797469	830.39879	562.622931	-457.629679	747.872869	381.026228	-255.669898	683.2811390000001	380.566702	-194.146612	588.213318	330.249912	-256.864791	840.2612350000001	334.305802	-363.688006	768.521627	267.323897	-432.725771	762.71408	196.738735	-361.025098	434.068759	397.525415	-271.579144	460.608162	171.794479	-252.340689	432.425554	227.548947	-176.128425	598.0028	99.454684	-358.768153	826.887196	67.77629899999999	-332.370614	774.713094	49.08104	-426.474499	817.099319	1429.664746	-539.525569	817.050463	1475.595823	-204.259541	871.469749	1393.202329	-335.481205	753.462852	1479.915917	-372.364671	757.56719	1409.845177	-117.724011	681.626654	1342.629282	-137.010088	705.094067	1297.763217	-79.37756899999999	658.567582	1204.278067	-39.987151	638.907228	1183.783557	-115.265482	763.715161	1340.056829	-612.051319	702.646655	1265.598648	-587.6397470000001	707.958296	1205.693599	-641.567856	697.462363	1122.526613	-665.008706	668.285781	1115.621648	-591.746346	751.118257	1146.171707	-28.12464	880.6423	1063.798551	-57.898604	832.711744	1012.495737	-38.563819	793.561748	1071.584962	-650.068183	915.3780369999999	996.199035	-568.868827	886.490617	946.132616	-612.54475	
